<?xml version="1.0" standalone="no"?>
<!DOCTYPE svg PUBLIC "-//W3C//DTD SVG 20010904//EN"
 "http://www.w3.org/TR/2001/REC-SVG-20010904/DTD/svg10.dtd">
<svg version="1.0" xmlns="http://www.w3.org/2000/svg"
 width="644.000000pt" height="264.000000pt" viewBox="0 0 644.000000 264.000000"
 preserveAspectRatio="xMidYMid meet">

<g transform="translate(0.000000,264.000000) scale(0.100000,-0.100000)"
fill="#000000" stroke="none">
<path d="M1293 2061 c-36 -5 -60 -14 -79 -31 -55 -52 -54 -31 -54 -797 0 -789
-3 -752 69 -800 l34 -23 1649 0 c1837 0 1694 -6 1736 69 22 39 22 39 22 758 0
682 -1 720 -19 753 -10 19 -34 44 -52 55 -34 20 -53 20 -1644 21 -885 0 -1633
-2 -1662 -5z m1636 -306 c31 -16 41 -33 41 -74 0 -58 -50 -88 -101 -61 -26 14
-24 48 4 61 19 8 18 9 -8 4 -16 -3 -41 -18 -54 -32 -19 -22 -22 -34 -18 -76 8
-90 80 -128 148 -77 33 24 49 17 49 -23 1 -90 -136 -133 -240 -77 -121 67
-122 265 -2 341 53 33 133 40 181 14z m-1348 -57 c1 -97 14 -116 28 -43 7 33
14 70 17 83 4 18 11 22 43 22 43 0 41 3 56 -95 10 -70 22 -71 29 -3 4 35 4 71
0 81 -5 15 2 17 64 17 l71 0 -13 -38 c-16 -45 -32 -144 -42 -259 l-7 -83 -68
0 c-67 0 -69 1 -69 26 0 14 -5 46 -11 70 -15 59 -29 40 -29 -38 l0 -58 -79 0
-78 0 -6 128 c-4 70 -13 155 -20 190 l-15 62 64 0 64 0 1 -62z m622 -25 c4
-57 17 -121 37 -181 16 -51 30 -97 30 -102 0 -6 -33 -10 -74 -10 l-74 0 5 40
6 40 -37 0 c-35 0 -36 -1 -36 -40 l0 -40 -74 0 -74 0 15 48 c45 144 53 182 53
254 l0 78 109 0 108 0 6 -87z m401 40 c-8 -56 -10 -61 -26 -45 -7 7 -24 12
-39 12 -42 0 -52 -37 -39 -150 5 -52 13 -107 16 -122 l6 -28 -75 0 -74 0 13
63 c8 34 14 95 14 135 0 59 -4 76 -21 93 -20 20 -51 19 -73 -2 -20 -18 -26 -8
-26 41 l0 50 166 0 165 0 -7 -47z m579 -32 c-3 -43 -2 -80 3 -83 5 -3 24 -9
43 -13 l34 -7 -7 63 c-4 35 -10 76 -13 92 l-5 27 71 0 71 0 -8 -47 c-4 -27 -7
-91 -7 -143 0 -52 3 -116 7 -142 l8 -48 -76 0 c-69 0 -75 2 -69 18 9 20 25 86
22 88 -1 1 -19 5 -41 8 l-38 7 7 -47 c3 -25 9 -53 12 -60 4 -11 -11 -14 -71
-14 l-76 0 8 48 c4 26 7 90 7 142 0 52 -3 116 -7 143 l-8 47 70 0 69 0 -6 -79z
m592 42 c4 -21 12 -56 19 -78 l13 -40 12 40 c6 22 11 57 11 78 l0 37 78 0 79
0 -5 -97 c-4 -87 6 -194 24 -260 6 -22 4 -23 -59 -23 l-65 0 4 38 c3 20 1 57
-4 82 l-9 45 -18 -82 -18 -83 -37 0 -37 0 -12 68 c-19 104 -32 111 -29 14 l3
-82 -66 0 -66 0 19 78 c16 62 18 99 14 190 l-5 112 74 0 74 0 6 -37z m601 0
c-3 -21 -6 -49 -6 -61 l0 -24 -31 26 c-17 14 -34 26 -37 26 -28 -1 -55 -17
-67 -41 -22 -42 -19 -49 15 -36 45 17 84 0 88 -40 4 -43 -28 -62 -65 -38 -31
21 -48 8 -39 -28 9 -37 59 -46 96 -18 l29 21 5 -28 c2 -15 7 -44 11 -64 l6
-38 -140 0 -141 0 8 63 c9 81 9 199 -1 265 l-8 52 142 0 142 0 -7 -37z m-2506
-569 l0 -75 -27 19 c-61 41 -94 35 -112 -21 -11 -34 -2 -178 19 -296 6 -30 10
-56 10 -58 0 -2 -43 -3 -95 -3 -52 0 -95 3 -95 8 0 4 7 48 15 97 8 50 15 127
15 171 0 67 -4 86 -21 108 -27 34 -65 34 -101 -1 l-28 -27 0 77 0 77 210 0
210 0 0 -76z m439 58 c48 -24 73 -62 79 -121 4 -47 2 -53 -31 -86 -19 -19 -42
-35 -51 -35 -13 0 -10 -12 16 -65 25 -51 37 -65 55 -65 12 0 25 5 28 10 11 18
25 0 25 -31 0 -42 -25 -86 -60 -104 -75 -39 -131 1 -160 115 -21 83 -53 123
-58 73 -1 -15 4 -61 11 -100 l14 -73 -102 0 -101 0 9 73 c5 39 7 152 4 250
l-5 177 146 0 c120 0 153 -3 181 -18z m563 -99 c5 -103 11 -134 47 -244 22
-69 41 -131 41 -137 0 -8 -30 -12 -96 -12 l-95 0 6 55 7 55 -55 0 c-47 0 -55
-3 -52 -17 2 -10 6 -35 9 -55 l5 -38 -100 0 c-54 0 -99 4 -99 8 0 5 14 48 31
98 41 119 59 218 59 320 l0 84 144 0 143 0 5 -117z m318 73 c0 -48 22 -175 38
-216 9 -23 11 -19 22 35 7 33 13 97 14 142 l1 83 93 0 c56 0 92 -4 92 -10 0
-6 -14 -52 -30 -103 -37 -112 -60 -237 -60 -328 l0 -69 -135 0 -135 0 0 93 c0
99 -12 159 -59 307 -17 52 -31 98 -31 103 0 4 43 7 95 7 l95 0 0 -44z m714
-28 c-3 -40 -8 -76 -10 -80 -2 -3 -17 7 -33 23 -50 50 -121 31 -151 -41 -15
-36 -9 -46 18 -31 37 20 91 13 117 -14 32 -31 31 -50 0 -81 -28 -28 -58 -26
-87 7 -17 20 -17 20 -34 -7 -16 -23 -16 -29 -3 -52 21 -37 70 -50 115 -29 18
9 34 21 34 27 0 5 4 10 9 10 4 0 11 -27 14 -60 4 -33 10 -72 13 -85 l6 -25
-187 0 -187 0 7 38 c21 109 21 347 1 440 l-8 32 187 0 186 0 -7 -72z m296 60
c0 -7 -7 -48 -15 -91 -17 -90 -20 -213 -5 -251 12 -33 50 -51 87 -42 15 4 47
28 70 54 l43 47 0 -108 0 -107 -186 0 -186 0 7 38 c21 106 21 312 0 430 l-8
42 97 0 c70 0 96 -3 96 -12z"/>
<path d="M2081 1615 c-16 -57 -14 -65 15 -65 24 0 25 2 18 33 -15 70 -21 75
-33 32z"/>
<path d="M2130 1075 c0 -43 1 -45 30 -45 29 0 70 29 70 49 0 17 -43 41 -72 41
-26 0 -28 -2 -28 -45z"/>
<path d="M2712 1045 c-28 -104 -28 -107 21 -98 27 5 28 8 22 42 -4 19 -12 49
-19 66 l-13 30 -11 -40z"/>
</g>
</svg>
